<?xml version="1.0" encoding="UTF-8"?>
<svg width="24px" height="24px" viewBox="0 0 24 24" version="1.1" xmlns="http://www.w3.org/2000/svg">
    <path d="M19.365 9.863c.349 0 .63.303.63.677 0 .375-.281.677-.63.677H4.63c-.348 0-.63-.302-.63-.677 0-.374.282-.677.63-.677h14.737zm-1.348-3.235c.348 0 .63.303.63.677 0 .374-.282.677-.63.677H5.985c-.349 0-.63-.303-.63-.677 0-.374.281-.677.63-.677h12.032zm-12.033 6.47c.349 0 .63.303.63.677 0 .374-.281.677-.63.677h8.46c.348 0 .63-.303.63-.677 0-.374-.282-.677-.63-.677h-8.46z"/>
</svg> 